<?xml version="1.0" encoding="UTF-8" standalone="no"?>
<svg
   width="1294"
   height="163"
   viewBox="0 0 1294 163"
   fill="none"
   version="1.1"
   id="svg1"
   sodipodi:docname="66092e15cde2a9aaa0e0400f_Vectors-Wrapper.svg"
   inkscape:version="1.4 (86a8ad7, 2024-10-11)"
   xmlns:inkscape="http://www.inkscape.org/namespaces/inkscape"
   xmlns:sodipodi="http://sodipodi.sourceforge.net/DTD/sodipodi-0.dtd"
   xmlns="http://www.w3.org/2000/svg"
   xmlns:svg="http://www.w3.org/2000/svg">
  <sodipodi:namedview
     id="namedview1"
     pagecolor="#ffffff"
     bordercolor="#000000"
     borderopacity="0.25"
     inkscape:showpageshadow="2"
     inkscape:pageopacity="0.0"
     inkscape:pagecheckerboard="true"
     inkscape:deskcolor="#d1d1d1"
     inkscape:zoom="0.61666667"
     inkscape:cx="508.37838"
     inkscape:cy="-145.13513"
     inkscape:window-width="1920"
     inkscape:window-height="1017"
     inkscape:window-x="-8"
     inkscape:window-y="-8"
     inkscape:window-maximized="1"
     inkscape:current-layer="g1" />
  <g
     clip-path="url(#clip0_2987_5528)"
     id="g1">
    <path
       fill-rule="evenodd"
       clip-rule="evenodd"
       d="m 851.74,0.130859 c -67.306,0 -96.389,28.802541 -96.389,81.020041 0,52.0101 29.498,81.8491 96.179,81.8491 h 18.28 c 67.52,0 96.6,-29.217 96.6,-81.4346 0,-52.0104 -29.5,-81.434541 -96.6,-81.434541 z M 847.109,130.947 c 0,1.156 0.937,2.093 2.093,2.093 h 36.748 c 1.16,0 2.1,-0.937 2.1,-2.093 V 31.5267 c 0,-1.156 -0.94,-2.0931 -2.1,-2.0931 h -32.61 c -0.84,0 -1.6,0.5114 -1.94,1.2833 -5.008,11.2121 -12.837,17.6213 -39.976,18.4216 -1.14,0.0336 -2.066,0.9632 -2.066,2.104 v 18.0931 c 0,1.156 0.938,2.0931 2.094,2.0931 h 33.564 c 1.156,0 2.093,0.9371 2.093,2.093 z M 979.87,49.4015 c 0,-1.156 0.94,-2.0931 2.09,-2.0931 h 35.91 c 1.16,0 2.09,0.9371 2.09,2.0931 v 9.6763 c 0,2.2249 3.42,3.1205 4.77,1.3572 8.62,-11.1986 22.38,-16.8564 42.81,-16.8564 h 7.06 c 34.69,0 52.97,16.3698 52.97,57.3974 v 56.134 c 0,1.156 -0.94,2.093 -2.09,2.093 h -37.36 c -1.16,0 -2.1,-0.937 -2.1,-2.093 v -55.926 c 0,-16.7845 -10.8,-24.4514 -31.36,-24.4514 h -3.74 c -22.23,0 -29.5,9.1174 -29.5,24.6584 v 55.719 c 0,1.156 -0.94,2.093 -2.09,2.093 h -37.37 c -1.15,0 -2.09,-0.937 -2.09,-2.093 z M 1204,162.933 c -47.78,0 -67.1,-17.199 -67.1,-59.677 0,-42.2715 19.32,-59.6774 67.31,-59.6774 h 19.31 c 46.33,0 66.48,18.0275 66.48,54.9113 v 12.6191 c 0,1.156 -0.94,2.093 -2.09,2.093 h -109 c -1.25,0 -2.22,1.088 -2.04,2.318 2.35,15.607 10.66,20.89 31.07,20.89 h 10.81 c 17.83,0 28.07,-4.332 30.2,-12.658 0.27,-1.035 1.14,-1.847 2.21,-1.847 h 36.01 c 1.27,0 2.26,1.132 2.02,2.384 -4.84,25.952 -26.53,38.644 -65.25,38.644 z m 44.23,-72.5244 c 1.16,0 2.1,-0.9441 2.02,-2.097 -0.95,-12.9698 -10.97,-18.2098 -31.5,-18.2098 h -10.18 c -19.62,0 -28.13,4.6218 -31.11,17.8817 -0.28,1.2603 0.71,2.4251 2,2.4251 z M 0,155.54 c 0,1.156 0.937092,2.093 2.09306,2.093 H 39.6618 c 1.156,0 2.0931,-0.937 2.0931,-2.093 V 41.5017 c 0,-0.9789 0.7935,-1.7725 1.7725,-1.7725 0.6922,0 1.3211,0.403 1.6103,1.0319 L 98.3218,156.415 c 0.3415,0.742 1.0842,1.218 1.9012,1.218 h 34.293 c 0.818,0 1.562,-0.477 1.903,-1.221 l 52.91,-115.5015 c 0.33,-0.7198 1.049,-1.1813 1.841,-1.1813 1.118,0 2.024,0.9064 2.024,2.0244 V 155.54 c 0,1.156 0.937,2.093 2.093,2.093 h 37.569 c 1.156,0 2.093,-0.937 2.093,-2.093 V 4.31678 c 0,-1.15596 -0.937,-2.09305 -2.093,-2.09305 h -62.603 c -0.829,0 -1.58,0.48904 -1.915,1.24713 L 119.999,112.871 c -0.335,0.758 -1.086,1.247 -1.914,1.247 h -0.403 c -0.822,0 -1.568,-0.48 -1.907,-1.229 L 66.2014,3.45312 C 65.8623,2.70459 65.1166,2.22373 64.2948,2.22373 H 2.09306 C 0.937093,2.22373 0,3.16083 0,4.31679 Z m 472.312,2.093 c -26.59,0 -36.353,-10.775 -36.353,-38.127 V 74.3546 c 0,-1.156 -0.937,-2.093 -2.093,-2.093 h -28.013 c -1.156,0 -2.093,-0.9371 -2.093,-2.0931 V 47.8314 c 0,-1.1559 0.937,-2.093 2.093,-2.093 h 28.013 c 1.156,0 2.093,-0.9371 2.093,-2.0931 V 14.6774 c 0,-1.156 0.937,-2.093 2.093,-2.093 h 37.153 c 1.156,0 2.093,0.937 2.093,2.093 v 28.9679 c 0,1.156 0.937,2.0931 2.093,2.0931 h 37.361 c 1.156,0 2.093,0.9371 2.093,2.093 v 22.3371 c 0,1.156 -0.937,2.0931 -2.093,2.0931 h -37.361 c -1.156,0 -2.093,0.937 -2.093,2.093 v 40.1784 c 0,8.288 2.493,10.775 11.01,10.775 h 28.86 c 1.156,0 2.093,0.937 2.093,2.093 v 28.139 c 0,1.156 -0.937,2.093 -2.093,2.093 z m 71.135,0 c -1.156,0 -2.093,-0.937 -2.093,-2.093 V 47.8314 c 0,-1.156 0.937,-2.093 2.093,-2.093 h 37.361 c 1.156,0 2.093,0.9371 2.093,2.093 V 155.54 c 0,1.156 -0.937,2.093 -2.093,2.093 z m 0,-126.6067 c -1.156,0 -2.093,-0.9371 -2.093,-2.0931 V 4.31678 c 0,-1.15596 0.937,-2.09305 2.093,-2.09305 h 37.361 c 1.156,0 2.093,0.93709 2.093,2.09305 V 28.9332 c 0,1.156 -0.937,2.0931 -2.093,2.0931 z M 310,156.933 c -47.78,0 -67.1,-17.199 -67.1,-59.677 0,-42.2715 19.32,-59.6774 67.31,-59.6774 h 19.31 c 46.33,0 66.48,18.0275 66.48,54.9113 v 12.6191 c 0,1.156 -0.94,2.093 -2.09,2.093 h -109 c -1.25,0 -2.22,1.088 -2.04,2.318 2.35,15.607 10.66,20.89 31.07,20.89 h 10.81 c 17.83,0 28.07,-4.332 30.2,-12.658 0.27,-1.035 1.14,-1.847 2.21,-1.847 h 36.01 c 1.27,0 2.26,1.132 2.02,2.384 -4.84,25.952 -26.53,38.644 -65.25,38.644 z m 44.23,-72.5244 c 1.16,0 2.1,-0.9441 2.02,-2.097 -0.95,-12.9698 -10.97,-18.2098 -31.5,-18.2098 h -10.18 c -19.62,0 -28.13,4.6218 -31.11,17.8817 -0.28,1.2603 0.71,2.4251 2,2.4251 z"
       fill="#1a1a1a"
       id="path1"
       sodipodi:nodetypes="sssssssssssssscsssssssssssscsssssssssssssssssssssssscsscsscssscsscssssssssccssccsssssssssccssccssssssssssssssssssssssssssssssssssssssssssssssssssssssssssscsscsscssscsscss" />
    <path
       id="text3"
       style="font-size:292.071px;font-family:Corbel;-inkscape-font-specification:Corbel;text-align:start;writing-mode:lr-tb;direction:ltr;text-anchor:start;fill:#1a1a1a;fill-opacity:1;stroke:#1a1a1a;stroke-width:12.214;stroke-dasharray:none;stroke-opacity:1;paint-order:stroke markers fill"
       d="m 668.60759,40.864516 c -8.2686,0 -16.11139,0.660886 -23.52883,1.980335 -7.41743,1.319448 -13.92267,3.298259 -19.51615,5.937157 -5.59347,2.638898 -10.03123,5.973952 -13.31436,10.005602 -3.28314,4.03165 -4.92546,8.795738 -4.92546,14.293442 0,5.351098 1.5802,9.749307 4.74174,13.19454 3.28312,3.371927 7.54037,6.048019 12.76904,8.027194 5.22867,1.979173 11.00399,3.519317 17.32706,4.61885 6.44465,1.099534 12.7674,2.051594 18.96887,2.857924 4.74229,0.65973 9.24219,1.3934 13.49809,2.19973 4.37751,0.80634 8.20767,1.83118 11.49078,3.07732 3.28313,1.24614 5.89609,2.82268 7.84165,4.72856 1.94555,1.90586 2.91813,4.32526 2.91813,7.25737 0,2.8588 -1.09294,5.3874 -3.28168,7.58647 -2.06714,2.12579 -5.10721,3.92262 -9.11992,5.38867 -3.89112,1.39275 -8.57349,2.45592 -14.04535,3.18894 -5.47191,0.73303 -11.61217,1.09891 -18.42162,1.09891 -8.63341,0 -16.53636,-0.51339 -23.7106,-1.53962 -7.17423,-1.02624 -14.40942,-2.41888 -21.70524,-4.17815 v 14.29345 c 1.82396,0.58642 4.13409,1.20898 6.93083,1.86871 2.79673,0.65974 6.13962,1.28421 10.03073,1.87063 4.01271,0.65973 8.57278,1.17311 13.67986,1.53964 5.22869,0.43981 11.004,0.65818 17.32707,0.65818 10.33576,0 19.82088,-0.73177 28.45429,-2.19782 8.63338,-1.39275 16.05104,-3.44627 22.25249,-6.15847 6.20146,-2.78551 11.00419,-6.19333 14.40893,-10.225 3.40471,-4.10495 5.10723,-8.79624 5.10723,-14.07405 0,-5.7909 -1.58022,-10.4822 -4.74173,-14.07405 -3.03993,-3.66514 -7.11275,-6.561514 -12.21984,-8.687292 -4.98547,-2.125778 -10.45796,-3.700394 -16.41623,-4.72663 -5.95825,-1.099542 -12.28101,-2.089912 -18.96888,-2.969543 -4.86386,-0.58642 -9.60644,-1.245384 -14.22713,-1.97841 -4.4991,-0.733034 -8.51173,-1.650605 -12.03805,-2.750148 -3.40473,-1.17284 -6.14194,-2.674667 -8.2091,-4.507234 -2.06716,-1.83257 -3.09992,-4.179181 -3.09992,-7.037987 0,-2.345688 0.66976,-4.470079 2.00733,-6.37595 1.45917,-1.979173 3.70717,-3.666822 6.7471,-5.059575 3.03993,-1.466054 6.93221,-2.602001 11.6745,-3.408332 4.7423,-0.806329 10.45743,-1.208601 17.14527,-1.208601 7.90383,0.0733 15.56414,0.659474 22.98157,1.759015 7.53901,1.026238 14.95667,2.382482 22.25251,4.068445 V 46.691975 c -6.68785,-1.685962 -14.16567,-3.0786 -22.43429,-4.178142 -8.14702,-1.099541 -17.0245,-1.649317 -26.63069,-1.649317 z" />
  </g>
  <defs
     id="defs1">
    <clipPath
       id="clip0_2987_5528">
      <rect
         width="1440"
         height="162.869"
         fill="#ffffff"
         transform="translate(0,0.130859)"
         id="rect1"
         x="0"
         y="0" />
    </clipPath>
  </defs>
</svg>
